<?xml version="1.0" encoding="UTF-8"?>
<!DOCTYPE svg PUBLIC "-//W3C//DTD SVG 1.1//EN" "http://www.w3.org/Graphics/SVG/1.1/DTD/svg11.dtd">
<svg version="1.1" xmlns="http://www.w3.org/2000/svg" xmlns:xlink="http://www.w3.org/1999/xlink" x="0" y="0" width="40" height="40" viewBox="0, 0, 40, 40">
  <g id="Layer_1">
    <path d="M20,0 C31.046,0 40,8.954 40,20 C40,31.046 31.046,40 20,40 L20,40 C8.954,40 0,31.046 0,20 C0,8.954 8.954,0 20,0 z M20.013,19.635 C14.907,19.635 10.768,22.915 10.768,28.021 C10.768,29.787 11.821,31.147 12.254,31.478 C12.654,31.784 16.674,31.953 20.013,31.953 C23.378,31.953 27.213,31.86 27.731,31.471 C28.008,31.263 29.258,29.762 29.258,28.021 C29.258,22.915 25.119,19.635 20.013,19.635 z M19.987,8.06 C17.168,8.06 14.883,10.345 14.883,13.164 C14.883,15.983 17.168,18.268 19.987,18.268 C22.806,18.268 25.091,15.983 25.091,13.164 C25.091,10.345 22.806,8.06 19.987,8.06 z"/>
  </g>
</svg>
