<?xml version="1.0" encoding="UTF-8"?>
<!DOCTYPE svg PUBLIC "-//W3C//DTD SVG 1.1//EN" "http://www.w3.org/Graphics/SVG/1.1/DTD/svg11.dtd">
<svg version="1.1" xmlns="http://www.w3.org/2000/svg" xmlns:xlink="http://www.w3.org/1999/xlink" x="0" y="0" width="40" height="40" viewBox="0, 0, 40, 40">
  <g id="Layer_1">
    <path d="M20,19.626 C14.859,19.626 10.691,22.929 10.691,28.07 C10.691,29.849 11.751,31.218 12.187,31.551 C12.59,31.859 16.638,32.029 20,32.029 C23.388,32.029 27.25,31.935 27.772,31.544 C28.05,31.334 29.309,29.823 29.309,28.07 C29.309,22.929 25.141,19.626 20,19.626 z M19.974,7.971 C17.135,7.971 14.834,10.272 14.834,13.11 C14.834,15.949 17.135,18.25 19.974,18.25 C22.812,18.25 25.113,15.949 25.113,13.11 C25.113,10.272 22.812,7.971 19.974,7.971 z"/>
  </g>
</svg>
