<?xml version="1.0" encoding="UTF-8"?>
<!DOCTYPE svg PUBLIC "-//W3C//DTD SVG 1.1//EN" "http://www.w3.org/Graphics/SVG/1.1/DTD/svg11.dtd">
<svg version="1.1" xmlns="http://www.w3.org/2000/svg" xmlns:xlink="http://www.w3.org/1999/xlink" x="0" y="0" width="162.85" height="200" viewBox="0, 0, 162.85, 200">
  <g id="Layer_1" transform="translate(0, 0)">
    <path d="M136.007,106.254 C136.288,136.52 162.559,146.592 162.85,146.72 C162.628,147.431 158.652,161.074 149.009,175.166 C140.673,187.35 132.022,199.489 118.393,199.74 C105.001,199.987 100.695,191.799 85.385,191.799 C70.079,191.799 65.294,199.489 52.618,199.987 C39.462,200.485 29.445,186.812 21.04,174.673 C3.865,149.842 -9.261,104.508 8.363,73.906 C17.119,58.709 32.765,49.086 49.747,48.839 C62.665,48.593 74.858,57.53 82.755,57.53 C90.647,57.53 105.465,46.782 121.042,48.361 C127.563,48.632 145.867,50.995 157.621,68.199 C156.674,68.786 135.78,80.95 136.007,106.254 M110.839,31.933 C117.823,23.479 122.524,11.71 121.242,0 C111.174,0.405 99.001,6.709 91.78,15.158 C85.309,22.64 79.641,34.616 81.17,46.095 C92.391,46.963 103.855,40.392 110.839,31.933" fill="#FBFBFB"/>
  </g>
</svg>
