<?xml version="1.0" encoding="UTF-8"?>
<!DOCTYPE svg PUBLIC "-//W3C//DTD SVG 1.1//EN" "http://www.w3.org/Graphics/SVG/1.1/DTD/svg11.dtd">
<svg version="1.1" xmlns="http://www.w3.org/2000/svg" xmlns:xlink="http://www.w3.org/1999/xlink" x="0" y="0" width="40" height="40" viewBox="0, 0, 40, 40">
  <g id="Layer_1">
    <path d="M37.422,15 L35.156,15 Q34.141,15 33.359,14.258 Q32.578,13.516 32.5,12.5 Q32.5,9.805 31.484,7.52 Q30.469,5.234 28.73,3.574 Q26.992,1.914 24.629,0.957 Q22.266,0 19.57,0 L13.008,0 Q10.312,0 7.949,1.016 Q5.586,2.031 3.809,3.789 Q2.031,5.547 1.016,7.891 Q0,10.234 0,12.93 L0,27.07 Q0,29.766 1.016,32.109 Q2.031,34.453 3.809,36.211 Q5.586,37.969 7.949,38.984 Q10.312,40 13.008,40 L26.992,40 Q29.688,40 32.07,38.984 Q34.453,37.969 36.211,36.211 Q37.969,34.453 38.984,32.109 Q40,29.766 40,27.07 L40,17.93 Q40,16.875 39.238,15.937 Q38.477,15 37.422,15 z M12.5,10 L20,10 Q21.016,10 21.758,10.742 Q22.5,11.484 22.5,12.5 Q22.5,13.516 21.758,14.258 Q21.016,15 20,15 L12.5,15 Q11.484,15 10.742,14.258 Q10,13.516 10,12.5 Q10,11.484 10.742,10.742 Q11.484,10 12.5,10 z M27.5,30 L12.5,30 Q11.484,30 10.742,29.258 Q10,28.516 10,27.5 Q10,26.484 10.742,25.742 Q11.484,25 12.5,25 L27.5,25 Q28.516,25 29.258,25.742 Q30,26.484 30,27.5 Q30,28.516 29.258,29.258 Q28.516,30 27.5,30 z" fill="#FBFBFB"/>
  </g>
</svg>
