<?xml version="1.0" encoding="UTF-8"?>
<!DOCTYPE svg PUBLIC "-//W3C//DTD SVG 1.1//EN" "http://www.w3.org/Graphics/SVG/1.1/DTD/svg11.dtd">
<svg version="1.1" xmlns="http://www.w3.org/2000/svg" xmlns:xlink="http://www.w3.org/1999/xlink" x="0" y="0" width="494.385" height="200" viewBox="0, 0, 494.385, 200">
  <g id="Layer_1" transform="translate(0, -0)">
    <path d="M20.146,126.131 C22.212,125.095 22.73,123.032 22.73,120.963 L22.73,74.988 C22.73,73.437 22.212,70.854 20.146,69.821 L41.843,69.821 C51.657,69.821 61.471,73.952 61.471,85.317 C61.471,91 56.307,95.652 50.621,96.682 C58.888,96.682 66.121,101.332 66.121,110.116 C66.121,123.032 53.205,126.131 43.906,126.131 L20.146,126.131 L20.146,126.131 z M37.712,74.988 C36.676,74.988 36.161,74.988 34.095,74.988 L34.095,94.617 L36.679,94.617 C43.394,94.617 49.594,92.551 49.594,84.802 C49.594,77.054 44.427,74.988 37.712,74.988 L37.712,74.988 z M39.259,99.784 C37.712,99.784 36.161,99.784 34.092,99.784 L34.092,120.451 C36.676,120.966 39.259,120.966 41.84,120.966 C47.523,120.966 53.205,118.903 53.205,110.119 C53.208,101.85 46.493,99.784 39.259,99.784 L39.259,99.784 z M87.821,74.988 C86.788,74.988 86.27,74.988 85.237,74.988 L85.237,94.617 C86.27,94.617 86.788,94.617 87.821,94.617 C94.018,94.617 98.671,91 98.671,84.285 C98.671,77.569 94.018,74.988 87.821,74.988 L87.821,74.988 z M116.233,126.643 C114.168,126.643 111.584,126.643 109.521,125.613 C105.901,124.577 100.737,116.314 98.671,112.697 C95.054,107.529 92.471,99.781 85.24,99.781 L85.24,120.96 C85.24,123.029 85.755,125.092 87.824,126.128 L70.776,126.128 C72.842,125.092 73.36,123.029 73.36,120.96 L73.36,74.985 C73.36,73.435 72.842,70.851 70.776,69.818 L91.444,69.818 C100.222,69.818 111.072,73.432 111.072,84.282 C111.072,93.063 103.838,97.712 95.572,97.712 C106.94,97.712 114.171,125.092 127.086,125.092 C123.467,126.131 119.847,126.643 116.233,126.643 L116.233,126.643 z M127.598,126.131 C129.146,125.616 130.697,123.547 130.697,120.963 L130.697,74.988 C130.697,72.405 129.146,70.854 127.598,69.821 L145.161,69.821 C143.613,70.854 142.062,72.402 142.062,74.988 L142.062,120.963 C142.062,123.547 143.613,125.616 145.161,126.131 L127.598,126.131 L127.598,126.131 z M165.31,126.131 C166.858,125.095 167.894,123.032 167.894,120.963 L167.894,76.536 L155.496,76.536 C152.394,76.536 149.295,77.051 146.715,78.087 L150.846,69.821 L191.659,69.821 C194.761,69.821 198.375,69.821 201.474,69.303 C199.923,73.435 195.276,76.536 192.692,76.536 C189.594,76.536 183.911,76.536 179.262,76.536 L179.262,120.963 C179.262,123.032 180.295,125.095 182.363,126.131 L165.31,126.131 L165.31,126.131 z M203.537,126.131 C205.087,125.616 206.638,123.547 206.638,120.963 L206.638,74.988 C206.638,72.405 205.087,70.854 203.537,69.821 L221.102,69.821 C219.551,70.854 218,72.402 218,74.988 L218,120.963 C218,123.547 219.551,125.616 221.102,126.131 L203.537,126.131 L203.537,126.131 z M254.682,113.215 C254.682,102.883 229.368,100.302 229.368,83.252 C229.368,72.92 239.182,69.303 247.966,69.303 C252.098,69.303 257.781,69.821 261.397,71.372 L261.915,82.222 C259.849,77.572 254.167,73.955 248.999,73.955 C244.871,73.955 240.736,76.021 240.736,80.671 C240.736,91.521 266.565,94.619 266.565,110.631 C266.565,121.999 256.236,127.164 245.898,127.164 C240.218,127.164 232.985,126.128 228.335,123.032 C228.335,120.963 227.817,118.9 227.817,117.347 C227.817,114.769 228.335,112.7 228.853,110.116 C231.434,116.832 237.119,121.999 244.871,121.999 C250.032,121.996 254.682,119.415 254.682,113.215 L254.682,113.215 z M308.408,126.131 C309.441,125.616 310.992,123.547 310.992,120.963 L310.992,100.299 C307.89,99.781 303.758,99.781 299.106,99.781 C293.941,99.781 289.807,99.781 286.711,100.299 L286.711,120.963 C286.711,123.547 288.259,125.616 289.295,126.131 L272.765,126.131 C273.798,125.616 275.346,123.547 275.346,120.963 L275.346,74.988 C275.346,72.405 273.798,70.854 272.765,69.821 L289.295,69.821 C288.259,70.854 286.711,72.402 286.711,74.988 L286.711,94.102 C289.81,94.102 293.944,94.617 299.106,94.617 C303.758,94.617 307.89,94.102 310.992,94.102 L310.992,74.988 C310.992,72.405 309.441,70.854 308.408,69.821 L324.937,69.821 C323.387,70.854 322.354,72.402 322.354,74.988 L322.354,120.963 C322.354,123.547 323.387,125.616 324.937,126.131 L308.408,126.131 L308.408,126.131 z" fill="#FBFBFB"/>
    <path d="M41.843,198.973 C42.358,198.452 42.876,197.937 42.876,196.904 C42.876,196.904 42.358,195.868 42.358,194.835 C42.358,194.835 37.712,182.44 37.194,180.89 C33.577,180.89 29.96,180.89 26.344,180.89 C23.245,180.89 19.628,180.89 16.53,180.89 C16.012,182.438 10.847,194.835 10.847,194.835 C10.329,196.383 9.814,196.904 9.814,197.419 C9.814,198.455 10.847,198.455 11.365,198.973 L0,198.973 C1.551,197.937 3.102,196.383 4.135,194.835 L22.215,146.795 C22.733,146.795 22.733,146.274 22.733,146.274 C22.733,144.726 21.7,143.696 20.664,143.175 L35.131,143.175 L53.726,194.833 C54.762,196.901 56.31,197.937 57.861,198.97 L41.843,198.97 L41.843,198.973 z M26.862,153.51 L18.595,175.204 C21.179,175.725 23.763,175.725 26.344,175.725 C28.927,175.725 32.026,175.725 35.128,175.204 L26.862,153.51 L26.862,153.51 z M60.439,198.973 C61.989,198.452 63.54,196.383 63.54,193.805 L63.54,147.831 C63.54,145.247 61.989,143.699 60.439,143.178 L78.004,143.178 C76.456,143.699 74.902,145.247 74.902,147.831 L74.902,193.808 C74.902,196.386 76.453,198.455 78.004,198.976 L60.439,198.976 L60.439,198.973 z M103.833,147.831 C102.8,147.831 102.285,147.831 101.252,147.831 L101.252,167.456 C102.285,167.456 102.803,167.456 103.833,167.456 C110.033,167.456 114.683,164.357 114.683,157.13 C114.683,150.411 110.033,147.831 103.833,147.831 L103.833,147.831 z M133.799,199.488 C131.215,199.488 129.149,199.488 127.083,198.973 C123.467,197.419 117.784,189.156 115.718,185.536 C112.617,180.369 108.485,172.62 101.255,172.62 L101.255,193.805 C101.255,195.868 101.77,197.937 103.836,198.973 L86.788,198.973 C88.854,197.937 89.369,195.868 89.369,193.805 L89.369,147.831 C89.369,146.277 88.854,143.699 86.788,143.178 L107.452,143.178 C116.233,143.178 127.083,146.277 127.083,157.13 C127.083,165.908 118.817,170.561 113.135,170.561 C125.018,171.076 132.248,197.94 144.131,197.94 C141.029,198.973 137.413,199.488 133.799,199.488 L133.799,199.488 z M203.537,148.343 L186.489,198.973 C184.938,198.973 183.387,198.452 182.872,197.937 C181.322,196.383 178.741,189.668 177.708,187.084 L169.957,167.453 L158.592,198.97 L153.427,198.97 L134.311,148.34 C133.796,146.271 132.245,144.208 130.179,143.172 L146.709,143.172 C146.191,143.693 145.676,144.208 145.676,145.241 C145.676,145.756 145.676,146.789 146.191,147.304 L158.589,180.887 L171.505,143.172 L185.968,179.336 L197.333,146.268 C197.333,145.753 197.851,145.238 197.851,144.72 C197.851,143.69 197.333,143.69 196.815,143.172 L207.665,143.172 C205.605,144.211 204.054,146.274 203.537,148.343 L203.537,148.343 z M223.686,153.51 L215.419,175.204 C218,175.725 220.584,175.725 223.168,175.725 C225.752,175.725 228.85,175.725 231.434,175.204 L223.686,153.51 L223.686,153.51 z M238.149,198.973 C239.185,198.452 239.185,197.937 239.185,196.904 C239.185,196.904 239.185,195.868 238.667,194.835 C238.667,194.835 234.533,182.44 233.503,180.89 C230.401,180.89 226.787,180.89 223.171,180.89 C220.069,180.89 216.455,180.89 213.357,180.89 C212.842,182.438 207.674,194.835 207.674,194.835 C207.156,196.383 206.641,196.904 206.641,197.419 C206.641,198.455 207.674,198.455 208.189,198.973 L196.824,198.973 C198.372,197.937 199.923,196.383 200.438,194.835 L219.036,146.795 L219.551,146.274 C219.551,144.726 218.518,143.696 217.482,143.175 L231.946,143.175 L250.544,194.833 C251.577,196.901 253.128,197.937 254.676,198.97 L238.149,198.97 L238.149,198.973 z M288.777,148.858 L275.861,172.105 L275.861,193.805 C275.861,195.868 276.379,197.937 277.93,198.973 L261.912,198.973 C263.463,197.937 263.978,195.868 263.978,193.805 L263.978,172.105 L252.613,153.51 C251.577,151.962 246.931,143.696 240.73,143.696 C242.278,143.175 247.446,142.142 250.544,142.142 C256.227,142.142 258.808,142.663 261.909,147.828 L272.759,164.869 C273.792,163.321 282.056,148.343 282.056,148.343 C283.091,146.795 283.606,145.244 283.606,144.726 C283.606,144.211 283.606,143.696 282.57,143.178 L294.456,143.178 C292.396,144.211 290.328,146.795 288.777,148.858 L288.777,148.858 z M319.773,186.057 C319.773,175.725 294.977,173.141 294.977,156.094 C294.977,145.762 304.791,142.142 313.573,142.142 C317.704,142.142 323.387,142.663 327.006,144.211 L327.521,155.058 C325.455,150.411 319.773,146.795 314.605,146.795 C310.474,146.795 306.342,148.858 306.342,153.51 C306.342,164.357 331.653,167.456 331.653,183.473 C331.653,195.356 321.839,200 311.507,200 C305.824,200 298.591,198.97 293.941,195.868 C293.941,193.805 293.423,192.252 293.423,190.189 C293.423,187.605 293.941,185.536 293.941,183.473 C297.043,189.668 302.723,194.835 309.956,194.835 C315.641,194.835 319.773,192.252 319.773,186.057 L319.773,186.057 z" fill="#FBFBFB"/>
    <path d="M471.137,31.076 C461.323,40.375 440.662,48.639 430.842,52.255 C416.893,57.423 410.696,59.489 402.944,62.07 C394.166,64.653 376.601,70.336 376.601,70.336 C412.759,81.186 438.593,84.284 438.593,84.284 C438.593,84.284 450.476,80.668 469.589,70.336 C479.921,65.168 484.571,62.07 488.188,58.453 C489.735,57.42 493.352,53.803 493.867,49.154 C493.867,48.636 494.385,48.118 494.385,47.085 C494.385,47.085 494.385,46.57 494.385,46.052 C493.867,45.537 493.867,45.019 493.867,45.019 C493.867,45.019 493.867,43.986 493.349,42.953 C493.349,42.438 492.316,39.855 490.25,38.304 C488.7,37.271 486.634,34.687 478.883,32.103 C476.302,31.07 471.649,30.035 471.649,30.035 L471.137,31.076 L471.137,31.076 z" fill="#FBFBFB" opacity="0.3"/>
    <path d="M494.385,46.573 C494.385,46.573 494.385,45.54 493.867,45.022 C493.867,43.989 493.349,43.474 492.834,42.441 C492.316,41.923 491.283,40.89 490.25,39.34 C489.215,38.825 488.185,37.789 487.149,36.759 C481.981,33.657 475.784,32.109 470.101,31.076 C461.32,30.04 450.988,30.04 449.952,30.04 C446.853,30.04 425.671,30.04 420.507,30.558 C396.747,31.076 367.296,31.076 359.55,31.076 C280.51,31.076 245.895,29.525 207.668,21.777 C175.121,15.577 157.041,9.379 157.041,9.379 C185.971,8.346 353.865,1.113 384.343,0.598 C404.492,0.08 418.438,-0.438 429.806,0.598 C436.003,0.598 441.171,1.113 447.886,2.664 C454.087,3.697 459.769,5.248 462.868,6.281 C469.583,8.861 475.784,12.478 478.367,16.613 C478.367,16.613 479.4,17.131 480.433,18.678 C481.469,20.747 483.017,22.813 483.535,23.328 C487.667,30.043 489.732,33.66 490.25,35.211 C491.283,36.762 491.798,38.313 492.316,39.86 C493.349,40.893 493.349,41.926 493.349,42.444 C493.867,43.992 493.867,45.543 494.385,46.058 L494.385,46.573 L494.385,46.573 z" fill="#FBFBFB"/>
  </g>
</svg>
