<?xml version="1.0" encoding="UTF-8"?>
<!DOCTYPE svg PUBLIC "-//W3C//DTD SVG 1.1//EN" "http://www.w3.org/Graphics/SVG/1.1/DTD/svg11.dtd">
<svg version="1.1" xmlns="http://www.w3.org/2000/svg" xmlns:xlink="http://www.w3.org/1999/xlink" x="0" y="0" width="40" height="31.445" viewBox="0, 0, 40, 31.445">
  <g id="Layer_1" transform="translate(0, -0.3)">
    <path d="M40,10.456 L40,28.191 Q40,29.636 38.945,30.691 Q37.891,31.745 36.445,31.745 L3.555,31.745 Q2.109,31.745 1.055,30.691 Q0,29.636 0,28.191 L0,10.456 Q0.977,11.55 2.266,12.409 Q10.352,17.878 13.359,20.105 Q14.609,21.042 15.43,21.55 Q16.211,22.097 17.539,22.644 Q18.828,23.191 19.961,23.191 L20.039,23.191 Q21.172,23.191 22.461,22.644 Q23.789,22.097 24.57,21.55 Q25.391,21.042 26.641,20.105 Q30.43,17.331 37.773,12.409 Q39.023,11.511 40,10.456 z M40,3.894 Q40,5.652 38.906,7.253 Q37.812,8.855 36.172,9.988 Q27.773,15.847 25.742,17.253 Q25.508,17.409 24.805,17.956 Q24.062,18.464 23.594,18.777 Q23.086,19.128 22.422,19.519 Q21.758,19.909 21.133,20.105 Q20.547,20.3 20.039,20.3 L19.961,20.3 Q19.453,20.3 18.867,20.105 Q18.242,19.909 17.578,19.519 Q16.914,19.128 16.406,18.777 Q15.938,18.464 15.195,17.956 Q14.492,17.409 14.258,17.253 Q12.227,15.847 8.398,13.191 Q4.609,10.534 3.828,9.988 Q2.461,9.05 1.211,7.409 Q0,5.769 0,4.363 Q0,2.644 0.938,1.472 Q1.836,0.3 3.555,0.3 L36.445,0.3 Q37.891,0.3 38.945,1.355 Q40,2.409 40,3.894 z"/>
  </g>
</svg>
