<?xml version="1.0" encoding="UTF-8"?>
<!DOCTYPE svg PUBLIC "-//W3C//DTD SVG 1.1//EN" "http://www.w3.org/Graphics/SVG/1.1/DTD/svg11.dtd">
<svg version="1.1" xmlns="http://www.w3.org/2000/svg" xmlns:xlink="http://www.w3.org/1999/xlink" x="0" y="0" width="40" height="39.039" viewBox="0, 0, 40, 39.039">
  <g id="Layer_1" transform="translate(0, -0.4)">
    <path d="M40,20.4 Q40,26.96 36.173,32.154 Q32.346,37.393 26.333,39.398 Q25.604,39.534 25.285,39.215 Q24.966,38.897 24.966,38.441 L24.966,32.928 Q24.966,30.423 23.599,29.238 Q25.103,29.056 26.287,28.783 Q27.472,28.464 28.747,27.735 Q29.977,27.051 30.843,26.004 Q31.663,25.001 32.21,23.27 Q32.756,21.585 32.756,19.352 Q32.756,16.209 30.706,14.022 Q31.663,11.653 30.478,8.692 Q29.749,8.464 28.383,8.965 Q27.016,9.512 25.968,10.104 L25.011,10.742 Q22.551,10.058 20,10.058 Q17.403,10.058 14.989,10.742 Q14.579,10.468 13.895,10.058 Q13.212,9.648 11.708,9.056 Q10.251,8.464 9.476,8.692 Q8.337,11.653 9.294,14.022 Q7.244,16.209 7.244,19.352 Q7.244,21.585 7.79,23.27 Q8.292,24.956 9.157,26.004 Q9.977,27.051 11.253,27.735 Q12.483,28.464 13.667,28.783 Q14.852,29.056 16.355,29.238 Q15.308,30.149 15.08,31.926 Q14.533,32.154 13.895,32.291 Q13.257,32.427 12.437,32.427 Q11.572,32.427 10.706,31.881 Q9.886,31.334 9.248,30.241 Q8.793,29.421 8.018,28.874 Q7.244,28.373 6.697,28.282 L6.196,28.19 Q5.649,28.19 5.421,28.327 Q5.239,28.418 5.33,28.6 Q5.376,28.783 5.558,28.965 Q5.695,29.147 5.877,29.284 L6.059,29.421 Q6.651,29.694 7.198,30.423 Q7.745,31.152 8.018,31.744 L8.292,32.336 Q8.61,33.338 9.431,33.931 Q10.251,34.523 11.162,34.705 Q12.118,34.887 12.984,34.887 Q13.85,34.887 14.442,34.796 L15.034,34.705 Q15.034,35.708 15.034,37.029 Q15.034,38.35 15.034,38.441 Q15.034,38.897 14.715,39.215 Q14.351,39.534 13.667,39.398 Q7.608,37.393 3.827,32.154 Q0,26.96 0,20.4 Q0,14.979 2.688,10.377 Q5.376,5.776 9.977,3.088 Q14.533,0.4 20,0.4 Q25.421,0.4 30.023,3.088 Q34.624,5.776 37.312,10.377 Q40,14.979 40,20.4 z"/>
  </g>
</svg>
