<?xml version="1.0" encoding="UTF-8"?>
<!DOCTYPE svg PUBLIC "-//W3C//DTD SVG 1.1//EN" "http://www.w3.org/Graphics/SVG/1.1/DTD/svg11.dtd">
<svg version="1.1" xmlns="http://www.w3.org/2000/svg" xmlns:xlink="http://www.w3.org/1999/xlink" x="0" y="0" width="236" height="60" viewBox="0, 0, 236, 60">
  <g id="Image" transform="translate(0, 0)">
    <path d="M218.636,15.619 C221.389,15.619 223.945,15.881 226.305,16.406 C228.763,16.954 230.876,17.915 232.625,19.291 C233.126,19.685 233.319,20.356 233.103,20.955 L231.483,25.468 C231.156,26.381 230.053,26.737 229.253,26.189 C228.03,25.351 226.536,24.736 224.762,24.351 C222.913,23.95 220.987,23.749 218.983,23.749 C217.92,23.749 216.951,23.863 216.073,24.088 C215.219,24.307 214.5,24.611 213.908,24.995 C213.354,25.355 212.93,25.778 212.623,26.271 C212.348,26.714 212.211,27.207 212.211,27.783 C212.211,28.396 212.347,28.877 212.61,29.264 C212.93,29.734 213.375,30.155 213.956,30.525 C214.609,30.942 215.389,31.321 216.298,31.659 C217.268,32.019 218.303,32.362 219.408,32.689 C220.43,32.995 221.523,33.315 222.687,33.647 C223.901,33.994 225.108,34.401 226.307,34.867 C227.533,35.344 228.705,35.903 229.823,36.544 C230.993,37.214 232.033,38.01 232.938,38.93 C233.879,39.885 234.624,41.004 235.172,42.276 C235.731,43.576 236.006,45.047 236.006,46.68 C236.006,48.953 235.47,50.968 234.391,52.691 C233.349,54.356 231.973,55.739 230.274,56.833 C228.617,57.9 226.732,58.696 224.625,59.223 C222.553,59.741 220.427,60 218.25,60 C216.831,60 215.424,59.92 214.031,59.759 C212.611,59.595 211.249,59.321 209.945,58.937 C208.625,58.548 207.397,58.046 206.263,57.429 C205.07,56.782 204.039,55.966 203.177,54.984 C202.832,54.592 202.719,54.046 202.881,53.548 L204.578,48.342 C204.938,47.238 206.37,46.959 207.118,47.846 C207.716,48.554 208.413,49.162 209.213,49.674 C210.041,50.203 210.934,50.635 211.893,50.97 C212.872,51.312 213.88,51.559 214.919,51.713 C215.979,51.869 217.012,51.948 218.019,51.948 C219.354,51.948 220.57,51.824 221.668,51.578 C222.73,51.341 223.632,50.998 224.377,50.555 C225.071,50.143 225.595,49.648 225.969,49.063 C226.314,48.524 226.488,47.895 226.488,47.142 C226.488,46.269 226.299,45.629 225.948,45.174 C225.52,44.619 224.902,44.123 224.079,43.69 C223.171,43.213 222.069,42.787 220.772,42.415 C219.37,42.012 217.853,41.552 216.218,41.033 C214.243,40.401 212.454,39.734 210.849,39.031 C209.171,38.296 207.735,37.434 206.542,36.44 C205.303,35.408 204.342,34.193 203.67,32.805 C202.988,31.396 202.654,29.756 202.654,27.898 C202.654,25.808 203.142,23.946 204.126,22.342 C205.077,20.791 206.332,19.507 207.878,18.5 C209.381,17.522 211.081,16.796 212.971,16.319 C214.825,15.853 216.714,15.619 218.636,15.619 z M178.258,23.749 C179.74,23.749 181.044,23.989 182.18,24.463 C183.31,24.935 184.258,25.59 185.037,26.435 C185.831,27.295 186.458,28.327 186.92,29.542 C187.265,30.575 187.612,31.544 187.696,32.665 L167.664,32.665 C167.914,31.488 167.709,32.344 168.503,30.16 C169.077,28.875 169.823,27.76 170.743,26.805 C171.648,25.866 172.728,25.122 173.992,24.569 C175.238,24.024 176.656,23.749 178.258,23.749 z M178.296,15.619 C175.005,15.619 172.05,16.214 169.444,17.413 C166.854,18.604 164.647,20.233 162.837,22.293 C161.038,24.342 159.669,26.72 158.733,29.418 C157.804,32.097 157.34,34.947 157.34,37.964 C157.34,41.135 157.81,44.064 158.755,46.747 C159.708,49.455 161.098,51.797 162.923,53.762 C164.754,55.732 166.994,57.268 169.629,58.363 C172.26,59.457 175.229,60 178.528,60 C181.968,60 185.066,59.554 187.819,58.654 C190.605,57.744 193.144,56.295 195.426,54.316 C195.892,53.911 196.059,53.259 195.843,52.68 L193.876,47.397 C193.502,46.391 192.214,46.105 191.449,46.859 C189.782,48.502 187.909,49.759 185.821,50.636 C183.746,51.509 181.447,51.948 178.913,51.948 C177.062,51.948 175.441,51.665 174.043,51.108 C172.656,50.555 171.492,49.781 170.536,48.78 C169.565,47.764 168.8,46.552 168.239,45.133 C167.665,43.679 167.305,42.062 167.162,40.275 L167.153,40.139 L195.921,40.139 C196.691,40.139 197.333,39.549 197.396,38.781 C197.424,38.447 197.445,38.083 197.459,37.687 C197.472,37.298 197.479,36.954 197.479,36.652 C197.479,33.712 197.106,30.974 196.357,28.442 C195.595,25.864 194.428,23.621 192.857,21.727 C191.268,19.812 189.243,18.311 186.802,17.23 C184.365,16.152 181.527,15.619 178.296,15.619 z M134.57,15.619 C130.947,15.619 127.843,16.294 125.273,17.663 C123.359,18.783 121.575,20.159 120.342,22.037 C119.856,21.241 120.16,21.695 119.383,20.709 C118.459,19.626 117.382,18.707 116.156,17.958 C114.946,17.217 113.612,16.643 112.16,16.234 C110.702,15.823 109.16,15.619 107.536,15.619 C104.597,15.619 101.955,16.173 99.626,17.288 C97.242,18.635 98.416,17.823 96.148,19.785 L96.096,18.021 C96.073,17.22 95.417,16.583 94.616,16.583 L88.176,16.583 C87.33,16.583 86.656,17.29 86.697,18.135 C86.773,19.741 86.831,21.413 86.869,23.149 C86.907,24.886 86.926,26.598 86.926,28.284 L86.926,57.632 C86.926,58.45 87.589,59.113 88.407,59.113 L94.77,59.113 C95.588,59.113 96.251,58.45 96.251,57.632 L96.251,34.994 C96.251,33.417 96.468,31.932 96.899,30.533 C97.321,29.164 97.935,27.981 98.742,26.972 C99.534,25.982 100.505,25.198 101.666,24.612 C102.801,24.039 104.121,23.749 105.646,23.749 C107.189,23.749 108.468,23.997 109.491,24.476 C110.525,24.961 111.353,25.599 111.992,26.396 C112.646,27.21 113.126,28.177 113.434,29.309 C113.759,30.503 113.922,31.781 113.922,33.143 L113.922,57.632 C113.922,58.45 114.585,59.113 115.403,59.113 L121.766,59.113 C122.584,59.113 123.247,58.45 123.247,57.632 L123.247,34.994 C123.247,33.501 123.468,32.065 123.91,30.682 C124.345,29.32 124.974,28.123 125.799,27.083 C126.609,26.063 127.592,25.251 128.759,24.64 C129.889,24.048 131.19,23.749 132.68,23.749 C134.604,23.749 136.067,24.095 137.088,24.749 C138.149,25.428 138.936,26.298 139.471,27.379 C140.049,28.546 140.426,29.867 140.6,31.349 C140.786,32.937 140.879,34.525 140.879,36.113 L140.879,57.632 C140.879,58.45 141.542,59.113 142.36,59.113 L148.723,59.113 C149.541,59.113 150.204,58.45 150.204,57.632 L150.204,33.105 C150.204,30.967 149.981,28.886 149.533,26.864 C149.066,24.757 148.24,22.87 147.055,21.213 C145.843,19.52 144.209,18.162 142.174,17.144 C140.124,16.119 137.587,15.619 134.57,15.619 z M56.861,23.749 C58.728,23.749 60.391,24.059 61.862,24.675 C63.325,25.288 64.555,26.141 65.566,27.242 C66.589,28.356 67.382,29.679 67.946,31.222 C68.514,32.776 68.801,34.507 68.801,36.421 C68.776,39.037 68.433,41.334 67.777,43.299 C67.127,45.252 66.263,46.862 65.193,48.139 C64.135,49.402 62.921,50.346 61.541,50.986 C60.156,51.627 58.679,51.948 57.092,51.948 C55.415,51.948 53.968,51.744 52.751,51.346 C51.529,50.946 50.495,50.418 49.643,49.765 C48.787,49.109 48.073,48.34 47.497,47.454 C46.897,46.531 46.425,45.552 46.079,44.514 C45.723,43.446 45.468,42.335 45.313,41.18 C45.154,39.997 45.075,38.848 45.075,37.732 C45.075,36.611 45.177,35.477 45.38,34.327 C45.581,33.194 45.893,32.105 46.317,31.057 C46.736,30.022 47.27,29.052 47.921,28.145 C48.556,27.261 49.301,26.493 50.162,25.836 C51.008,25.191 51.982,24.681 53.091,24.307 C54.192,23.937 55.447,23.749 56.861,23.749 z M56.359,15.619 C52.957,15.619 49.953,16.243 47.362,17.504 C44.798,18.751 42.65,20.411 40.932,22.478 C39.229,24.528 37.955,26.868 37.113,29.489 C36.282,32.078 35.866,34.725 35.866,37.424 C35.866,39.167 36.043,40.928 36.395,42.706 C36.75,44.491 37.281,46.215 37.99,47.877 C38.707,49.559 39.624,51.132 40.74,52.592 C41.87,54.071 43.204,55.363 44.736,56.463 C46.278,57.571 48.024,58.437 49.967,59.061 C51.92,59.689 54.077,60 56.436,60 C58.125,60 59.744,59.805 61.292,59.415 C62.82,59.03 64.225,58.517 65.506,57.877 C67.872,56.527 66.771,57.249 68.827,55.735 L68.801,57.611 C68.789,58.437 69.456,59.113 70.281,59.113 L76.645,59.113 C77.463,59.113 78.126,58.45 78.126,57.632 L78.126,27.821 L78.28,18.087 C78.293,17.261 77.626,16.583 76.799,16.583 L70.513,16.583 C69.72,16.583 69.067,17.208 69.033,18.001 L68.948,20.014 L68.572,19.667 C67.525,18.79 66.378,18.054 65.135,17.46 C63.899,16.871 62.559,16.417 61.114,16.097 C59.668,15.778 58.083,15.619 56.359,15.619 z M27.86,-0 L21.226,-0 C20.409,0 19.746,0.663 19.745,1.481 L19.745,38.812 C19.746,40.707 19.558,42.445 19.187,44.027 C18.826,45.566 18.285,46.888 17.57,48 C16.889,49.06 16.036,49.875 15,50.463 C13.987,51.037 12.766,51.331 11.315,51.33 C9.947,51.331 8.711,51.117 7.599,50.694 C6.451,50.258 5.37,49.649 4.353,48.863 C3.592,48.274 2.48,48.557 2.092,49.439 L0.125,53.912 C-0.12,54.471 0.002,55.124 0.434,55.555 C1.82,56.942 3.391,58.029 5.138,58.81 C6.917,59.606 8.916,60 11.122,60 C13.936,60 16.472,59.526 18.72,58.571 C20.989,57.607 22.926,56.182 24.515,54.309 C26.091,52.453 27.29,50.173 28.118,47.481 C28.935,44.825 29.341,41.794 29.34,38.388 L29.34,1.481 C29.341,0.663 28.678,0 27.86,-0 z"/>
  </g>
</svg>
