<?xml version="1.0" encoding="UTF-8"?>
<!DOCTYPE svg PUBLIC "-//W3C//DTD SVG 1.1//EN" "http://www.w3.org/Graphics/SVG/1.1/DTD/svg11.dtd">
<svg version="1.1" xmlns="http://www.w3.org/2000/svg" xmlns:xlink="http://www.w3.org/1999/xlink" x="0" y="0" width="310" height="100" viewBox="0, 0, 310, 100">
  <g id="Layer_1">
    <path d="M301.625,85.963 C297,85.963 293.251,82.213 293.251,77.588 C293.251,72.963 297,69.214 301.625,69.214 C306.25,69.214 310,72.963 310,77.588 C310,82.213 306.25,85.963 301.625,85.963 z" fill="#E35038"/>
    <path d="M267.281,34.632 C269.416,34.632 271.724,35.077 274.205,35.958 C276.743,36.858 278.962,38.255 280.848,40.141 L281.765,41.058 L277.59,46.486 L276.385,48.052 L275.223,46.454 C274.817,45.895 273.846,45.263 272.311,44.643 C270.718,43.999 269.119,43.679 267.507,43.679 C266.887,43.679 266.203,43.774 265.455,43.969 C264.753,44.152 264.12,44.439 263.547,44.831 C263.006,45.201 262.547,45.689 262.164,46.307 C261.828,46.85 261.652,47.54 261.652,48.405 C261.652,49.751 262.03,50.737 262.78,51.459 C263.712,52.358 264.896,53.153 266.337,53.84 C267.874,54.572 269.543,55.268 271.344,55.93 C273.279,56.641 275.08,57.512 276.745,58.542 C278.5,59.629 279.967,61.033 281.136,62.745 C282.369,64.55 282.973,66.814 282.973,69.5 C282.973,73.645 281.544,77.196 278.712,80.07 C275.855,82.969 271.826,84.402 266.717,84.402 C263.995,84.402 261.223,83.923 258.404,82.971 C255.486,81.984 253.096,80.405 251.263,78.239 L250.384,77.201 L251.346,76.239 C251.616,75.969 251.968,75.581 252.397,75.081 C252.844,74.56 253.253,74.076 253.624,73.631 C253.991,73.191 254.3,72.809 254.552,72.485 C254.718,72.271 254.863,72.102 254.998,71.966 C255.366,71.599 255.643,71.407 256.226,71.407 L257.063,71.407 L257.494,72.124 C257.567,72.247 257.891,72.521 258.453,72.858 C259.143,73.272 259.946,73.674 260.863,74.062 C261.776,74.448 262.764,74.783 263.827,75.066 C264.834,75.335 265.797,75.468 266.717,75.468 C267.49,75.468 268.325,75.353 269.223,75.12 C270.069,74.901 270.849,74.542 271.57,74.04 C272.259,73.561 272.807,72.969 273.225,72.253 C273.611,71.589 273.813,70.755 273.813,69.726 C273.813,68.38 273.435,67.395 272.686,66.672 C271.753,65.773 270.569,64.978 269.128,64.292 C267.602,63.565 265.926,62.891 264.098,62.27 C262.114,61.595 260.283,60.739 258.607,59.702 C256.847,58.612 255.377,57.184 254.207,55.43 C252.979,53.588 252.38,51.274 252.379,48.518 C252.38,46.032 252.845,43.895 253.796,42.123 C254.717,40.407 255.899,38.972 257.338,37.829 C258.772,36.69 260.397,35.867 262.203,35.363 C263.945,34.877 265.639,34.632 267.281,34.632 z" fill="#FBFBFB"/>
    <path d="M221.418,34.293 C226.72,34.293 231.359,35.914 235.274,39.143 C239.126,42.32 241.966,46.372 243.785,51.276 L244.294,52.647 L242.928,53.17 C240.377,54.145 237.544,55.252 234.429,56.491 C231.31,57.731 228.116,59.009 224.846,60.324 C221.576,61.639 218.326,62.955 215.094,64.27 C212.583,65.291 210.073,66.312 207.562,67.331 C208.732,69.592 210.548,71.319 212.593,72.783 C215.166,74.499 218.095,75.355 221.418,75.355 C223.647,75.355 225.763,74.973 227.775,74.21 C229.777,73.451 231.451,72.426 232.809,71.136 L233.827,70.169 L234.845,71.137 L239.47,75.536 L240.629,76.639 L239.438,77.707 C237.121,79.785 234.409,81.42 231.311,82.612 C228.209,83.805 224.983,84.402 221.643,84.402 C218.137,84.402 214.836,83.742 211.755,82.421 C208.693,81.109 206.019,79.333 203.743,77.097 C201.463,74.857 199.663,72.217 198.347,69.186 C197.025,66.141 196.363,62.895 196.363,59.461 C196.363,56.028 197.024,52.765 198.344,49.685 C199.658,46.618 201.456,43.941 203.734,41.664 C206.009,39.388 208.665,37.591 211.692,36.277 C214.737,34.955 217.983,34.293 221.418,34.293 z M221.418,43.453 C219.217,43.453 217.166,43.881 215.252,44.735 C213.31,45.602 211.617,46.759 210.167,48.21 C208.719,49.658 207.582,51.328 206.754,53.227 C205.933,55.107 205.523,57.105 205.523,59.235 L205.576,60.301 C208.712,59.002 206.812,59.782 211.28,57.976 C213.907,56.925 216.534,55.856 219.16,54.767 C221.799,53.674 224.4,52.619 226.964,51.601 C231.267,49.909 229.43,50.62 232.469,49.452 C231.543,47.644 229.97,46.559 228.415,45.426 C226.321,44.109 224,43.453 221.418,43.453 z" fill="#FBFBFB"/>
    <path d="M167.996,34.406 C172.868,34.406 176.789,35.775 179.678,38.539 C182.56,41.296 184.086,44.933 184.251,49.421 L184.251,83.5 L175.091,83.5 L175.091,82.022 L175.094,51.651 C174.963,49.429 174.195,47.571 172.773,46.02 C171.407,44.531 169.295,43.698 166.417,43.566 C164.268,43.566 162.291,43.927 160.475,44.647 C158.655,45.368 157.086,46.357 155.758,47.616 C154.438,48.869 153.406,50.357 152.658,52.093 C151.905,53.838 151.493,55.743 151.425,57.768 L151.425,83.5 L142.265,83.5 L142.265,82.022 L142.267,51.651 C142.137,49.429 141.368,47.571 139.946,46.02 C138.578,44.528 136.503,43.698 133.703,43.566 C131.477,43.566 129.462,43.928 127.648,44.647 C125.829,45.367 124.242,46.374 122.876,47.672 C121.52,48.96 120.471,50.483 119.722,52.253 C118.974,54.021 118.598,55.969 118.598,58.107 L118.598,83.5 L109.438,83.5 L109.438,35.421 L117.54,35.421 L117.686,36.736 C117.766,37.455 117.825,38.374 117.864,39.499 C117.901,40.575 117.957,41.688 118.031,42.839 L118.059,43.322 C119.363,41.334 121.108,39.736 122.943,38.257 C126.251,35.766 130.333,34.486 135.169,34.406 C139.718,34.406 143.447,35.628 146.29,38.095 C148.078,39.722 149.674,41.716 150.381,44.066 C151.796,41.679 153.848,39.773 156.01,38.077 C159.241,35.705 163.242,34.486 167.996,34.406 z" fill="#FBFBFB"/>
    <path d="M67.872,34.406 C70.272,34.406 72.524,34.728 74.624,35.374 C76.71,36.016 78.586,36.883 80.248,37.977 C81.828,38.971 83.183,40.256 84.44,41.625 L84.671,36.828 L84.739,35.421 L93.378,35.421 L93.378,83.5 L84.218,83.5 L84.218,77.868 C83.102,79.119 81.718,80.081 80.339,81.014 C78.676,82.069 76.798,82.896 74.712,83.498 C72.619,84.102 70.338,84.402 67.872,84.402 C64.291,84.402 60.954,83.743 57.871,82.421 C54.801,81.106 52.159,79.324 49.953,77.079 C47.755,74.84 46.016,72.222 44.741,69.234 C43.459,66.229 42.818,63.043 42.818,59.686 C42.818,56.254 43.478,52.991 44.799,49.91 C46.111,46.847 47.906,44.155 50.179,41.842 C52.456,39.525 55.115,37.706 58.146,36.39 C61.192,35.067 64.438,34.406 67.872,34.406 z M68.098,43.453 C65.81,43.453 63.692,43.866 61.734,44.691 C59.759,45.523 58.054,46.642 56.609,48.053 C55.17,49.458 54.039,51.12 53.212,53.049 C52.39,54.967 51.978,57.062 51.978,59.348 C51.978,61.633 52.39,63.729 53.212,65.647 C54.041,67.581 55.176,69.266 56.621,70.711 C58.064,72.154 59.765,73.288 61.734,74.117 C63.692,74.942 65.81,75.355 68.098,75.355 C70.386,75.355 72.503,74.942 74.462,74.117 C76.431,73.288 78.132,72.154 79.574,70.711 C81.02,69.266 82.155,67.581 82.984,65.647 C83.806,63.729 84.218,61.633 84.218,59.348 C84.218,57.139 83.806,55.081 82.984,53.161 C82.155,51.227 81.02,49.542 79.574,48.097 C78.132,46.654 76.431,45.52 74.462,44.691 C72.503,43.866 70.386,43.453 68.098,43.453 z" fill="#FBFBFB"/>
    <path d="M29.24,0 L29.24,68.936 C29.24,73.767 28.535,78.095 27.117,81.916 C25.695,85.746 23.729,88.983 21.216,91.616 C18.708,94.244 15.757,96.277 12.376,97.709 C9.004,99.137 5.378,99.89 1.508,99.969 L0,100 L0,89.874 L1.396,89.797 C3.926,89.656 6.23,89.115 8.317,88.176 C10.375,87.25 12.136,85.933 13.612,84.217 C15.099,82.488 16.286,80.323 17.168,77.714 C18.054,75.092 18.5,72.054 18.5,68.598 L18.5,0 L29.24,0 z" fill="#FBFBFB"/>
  </g>
</svg>
