<?xml version="1.0" encoding="UTF-8"?>
<!DOCTYPE svg PUBLIC "-//W3C//DTD SVG 1.1//EN" "http://www.w3.org/Graphics/SVG/1.1/DTD/svg11.dtd">
<svg version="1.1" xmlns="http://www.w3.org/2000/svg" xmlns:xlink="http://www.w3.org/1999/xlink" x="0" y="0" width="260" height="90" viewBox="0, 0, 260, 90">
  <g id="Layer_1">
    <g>
      <path d="M27.555,1 C28.391,1 29.068,1.677 29.068,2.513 L29.068,59.633 C29.068,64.135 28.392,68.158 27.031,71.696 C25.667,75.243 23.748,78.276 21.275,80.784 C18.802,83.291 15.864,85.215 12.474,86.55 C9.116,87.873 5.477,88.601 1.565,88.736 C0.709,88.766 0,88.08 0,87.224 L0,77.253 C0,76.451 0.626,75.788 1.426,75.742 C5.587,75.505 8.933,74.102 11.534,71.53 C14.082,69.011 15.393,64.974 15.393,59.342 L15.393,2.513 C15.393,1.677 16.071,1 16.906,1 L27.555,1 z M26.043,4.025" fill="#FBFBFB"/>
      <path d="M63.094,29.657 C65.173,29.657 67.094,29.919 68.853,30.447 C70.585,30.966 72.091,31.614 73.37,32.396 C75.29,33.727 74.593,33.124 75.59,34.046 L75.719,32.132 C75.773,31.338 76.433,30.722 77.229,30.722 L85.167,30.722 C86.003,30.722 86.68,31.399 86.68,32.234 L86.68,72.702 C86.68,73.538 86.003,74.215 85.167,74.215 L76.842,74.215 C76.006,74.215 75.329,73.538 75.329,72.702 L75.329,71.353 C74.455,72.09 75.103,71.573 73.255,72.725 C72.025,73.393 70.586,73.965 68.939,74.445 C67.244,74.939 65.328,75.183 63.191,75.183 C59.891,75.183 56.831,74.578 54.023,73.365 C51.232,72.159 48.827,70.532 46.816,68.486 C44.81,66.446 43.235,64.075 42.096,61.384 C40.952,58.679 40.379,55.833 40.379,52.856 C40.379,49.682 40.985,46.687 42.197,43.881 C43.401,41.097 45.038,38.649 47.106,36.547 C49.173,34.446 51.569,32.774 54.286,31.536 C57.034,30.283 59.975,29.657 63.094,29.657 z M63.481,40.814 C61.741,40.814 60.165,41.115 58.742,41.713 C57.307,42.316 56.084,43.126 55.063,44.147 C54.039,45.171 53.228,46.381 52.625,47.788 C52.03,49.177 51.731,50.7 51.731,52.371 C51.731,54.045 52.031,55.589 52.629,57.014 C53.232,58.449 54.042,59.672 55.063,60.693 C56.084,61.714 57.307,62.524 58.742,63.127 C60.165,63.725 61.741,64.025 63.481,64.025 C65.224,64.025 66.819,63.724 68.278,63.123 C69.742,62.52 70.994,61.695 72.045,60.644 C73.096,59.593 73.903,58.375 74.473,56.979 C75.042,55.584 75.329,54.052 75.329,52.371 C75.329,50.691 75.042,49.159 74.473,47.764 C73.906,46.374 73.103,45.177 72.059,44.162 C71.006,43.137 69.749,42.323 68.278,41.717 C66.819,41.116 65.224,40.814 63.481,40.814 z" fill="#FBFBFB"/>
      <path d="M154.494,29.657 C159.05,29.657 162.729,30.913 165.449,33.452 C168.168,35.99 169.61,39.274 169.754,43.271 L169.754,72.702 C169.754,73.538 169.077,74.215 168.241,74.215 L159.915,74.215 C159.08,74.215 158.403,73.538 158.403,72.702 L158.406,47.141 C158.297,45.4 157.728,43.958 156.691,42.761 C155.738,41.662 154.077,41.022 151.686,40.911 C148.23,40.911 145.613,41.983 143.72,44.127 C141.768,46.337 140.73,49.177 140.613,52.662 L140.613,72.702 C140.613,73.538 139.936,74.215 139.1,74.215 L130.871,74.215 C130.036,74.215 129.359,73.538 129.359,72.702 L129.361,47.141 C129.254,45.415 128.663,43.983 127.575,42.789 C126.549,41.664 124.91,41.021 122.642,40.911 C120.908,40.911 119.371,41.21 118.021,41.801 C116.655,42.398 115.5,43.201 114.545,44.213 C113.593,45.221 112.863,46.428 112.351,47.85 C111.831,49.293 111.569,50.895 111.569,52.662 L111.569,72.702 C111.569,73.538 110.892,74.215 110.056,74.215 L101.827,74.215 C100.992,74.215 100.315,73.538 100.315,72.702 L100.315,32.234 C100.315,31.399 100.992,30.722 101.827,30.722 L109.088,30.722 C109.886,30.722 110.547,31.341 110.598,32.137 C110.829,35.796 110.722,34.052 110.922,37.369 C111.909,35.751 113.252,34.415 114.65,33.158 C117.357,30.884 120.936,29.727 125.353,29.657 C129.626,29.657 133.133,30.766 135.812,33.011 C137.582,34.348 138.562,36.219 139.563,38.13 C142.678,34.035 141.123,35.674 143.997,33.002 C146.639,30.831 150.147,29.727 154.494,29.657 z" fill="#FBFBFB"/>
      <path d="M202.909,29.657 C207.833,29.657 212.155,31.144 215.817,34.108 C219.434,37.037 222.035,40.878 223.609,45.6 C223.87,46.382 223.457,47.229 222.68,47.504 C220.7,48.207 218.427,49.071 215.862,50.097 C213.284,51.129 210.608,52.209 207.835,53.337 C205.055,54.468 202.275,55.584 199.495,56.683 C194.785,58.527 196.814,57.744 193.413,59.047 C195.844,61.722 194.651,60.72 196.793,62.274 C198.647,63.443 200.706,64.025 203.005,64.025 C204.568,64.025 206.152,63.735 207.765,63.148 C209.341,62.575 210.588,61.819 211.52,60.886 C212.104,60.302 213.049,60.295 213.642,60.87 L219.838,66.872 C220.468,67.482 220.449,68.497 219.798,69.083 C217.715,70.957 215.194,72.442 212.246,73.539 C209.303,74.634 206.284,75.183 203.199,75.183 C200.026,75.183 197.03,74.577 194.225,73.365 C191.441,72.162 189.01,70.541 186.939,68.505 C184.864,66.464 183.221,64.061 182.015,61.304 C180.801,58.529 180.194,55.58 180.194,52.468 C180.194,49.357 180.801,46.407 182.015,43.633 C183.219,40.88 184.859,38.463 186.93,36.393 C188.998,34.324 191.396,32.685 194.115,31.481 C196.859,30.265 199.795,29.657 202.909,29.657 z M203.005,40.814 C201.343,40.814 199.828,41.126 198.445,41.747 C197.036,42.379 195.823,43.222 194.795,44.278 C193.761,45.341 192.943,46.56 192.338,47.944 C191.721,49.561 192.025,48.61 191.547,50.831 C193.047,50.244 191.916,50.689 194.929,49.471 C196.894,48.666 198.844,47.86 200.778,47.054 C202.716,46.247 204.59,45.471 206.4,44.728 C209.14,43.603 208.111,44.025 209.487,43.461 C208.174,42.169 208.861,42.673 207.481,41.875 C206.004,41.165 204.517,40.814 203.005,40.814 z" fill="#FBFBFB"/>
      <path d="M245.514,29.753 C247.572,29.754 249.745,30.174 252.034,31.006 C254.367,31.855 256.364,33.103 258.008,34.747 C258.54,35.279 258.6,36.122 258.148,36.724 L253.792,42.533 C253.24,43.269 252.163,43.346 251.512,42.695 C251.551,42.734 251.34,42.583 251.065,42.4 C250.765,42.2 250.348,41.985 249.816,41.761 C249.265,41.529 248.615,41.307 247.866,41.097 C247.192,40.909 246.506,40.814 245.805,40.814 C244.941,40.814 244.085,41.019 243.222,41.437 C242.711,41.685 242.477,42.11 242.477,42.981 C242.477,43.781 242.733,44.368 243.276,44.851 C244.035,45.525 244.996,46.142 246.163,46.697 C247.435,47.301 248.82,47.922 250.318,48.559 C251.938,49.249 253.441,50.095 254.825,51.098 C256.274,52.149 257.488,53.454 258.461,55.004 C259.496,56.651 260,58.687 260,61.085 C260,65.108 258.592,68.492 255.801,71.138 C253.015,73.779 249.236,75.086 244.546,75.086 C241.853,75.086 239.211,74.62 236.628,73.69 C233.976,72.736 231.809,71.32 230.15,69.445 C229.62,68.846 229.648,67.938 230.213,67.373 C230.615,66.971 231.075,66.437 231.586,65.775 C232.149,65.047 232.713,64.351 233.277,63.687 C233.825,63.043 234.276,62.511 234.63,62.092 C234.832,61.853 234.999,61.668 235.139,61.528 C235.234,61.432 235.324,61.351 235.419,61.278 C235.706,61.058 235.958,60.927 236.414,60.927 C237.369,61.12 236.861,60.905 237.796,61.84 C237.771,61.75 237.792,61.811 237.708,61.669 C237.613,61.532 237.613,61.532 237.563,61.478 C237.536,61.449 237.531,61.445 237.54,61.452 C237.621,61.517 237.77,61.623 237.979,61.762 C238.39,62.036 238.951,62.338 239.658,62.662 C240.366,62.987 241.173,63.286 242.077,63.557 C242.905,63.805 243.727,63.929 244.546,63.929 C245.794,63.929 246.812,63.631 247.643,63.044 C248.344,62.549 248.649,61.975 248.649,61.181 C248.649,60.48 248.423,60.003 247.926,59.616 C247.156,59.018 246.178,58.448 244.99,57.914 C243.722,57.343 242.323,56.755 240.795,56.15 C239.121,55.488 237.583,54.631 236.184,53.582 C234.735,52.495 233.522,51.137 232.551,49.519 C231.526,47.81 231.029,45.657 231.029,43.077 C231.029,40.645 231.486,38.56 232.422,36.837 C233.332,35.163 234.509,33.784 235.947,32.715 C237.359,31.665 238.935,30.904 240.665,30.435 C242.34,29.982 243.957,29.754 245.514,29.753 z M237.828,61.95 L237.927,62.44 C237.865,62.057 237.904,62.219 237.828,61.95 z" fill="#FBFBFB"/>
    </g>
  </g>
</svg>
