<?xml version="1.0" encoding="UTF-8"?>
<!DOCTYPE svg PUBLIC "-//W3C//DTD SVG 1.1//EN" "http://www.w3.org/Graphics/SVG/1.1/DTD/svg11.dtd">
<svg version="1.1" xmlns="http://www.w3.org/2000/svg" xmlns:xlink="http://www.w3.org/1999/xlink" x="0" y="0" width="40" height="38.223" viewBox="0, 0, 40, 38.223">
  <g id="Layer_1" transform="translate(0, -0.7)">
    <path d="M9.066,13.092 L9.066,38.923 L0.501,38.923 L0.501,13.092 z M9.613,5.119 Q9.658,7.033 8.337,8.308 Q6.97,9.584 4.784,9.584 L4.738,9.584 Q2.597,9.584 1.321,8.308 Q0,7.033 0,5.119 Q0,3.206 1.321,1.93 Q2.688,0.7 4.829,0.7 Q7.016,0.7 8.292,1.93 Q9.613,3.206 9.613,5.119 z M40,24.117 L40,38.923 L31.435,38.923 L31.435,25.119 Q31.435,22.386 30.387,20.837 Q29.294,19.288 27.062,19.288 Q25.421,19.288 24.328,20.153 Q23.235,21.064 22.688,22.386 Q22.369,23.16 22.369,24.527 L22.369,38.923 L13.804,38.923 Q13.895,28.536 13.895,22.067 Q13.895,15.597 13.85,14.367 L13.804,13.092 L22.369,13.092 L22.369,16.873 L22.323,16.873 Q22.87,16.008 23.417,15.415 Q23.964,14.777 24.875,14.049 Q25.786,13.32 27.153,12.91 Q28.474,12.5 30.114,12.5 Q34.579,12.5 37.267,15.461 Q40,18.422 40,24.117 z"/>
  </g>
</svg>
