<?xml version="1.0" encoding="UTF-8"?>
<!DOCTYPE svg PUBLIC "-//W3C//DTD SVG 1.1//EN" "http://www.w3.org/Graphics/SVG/1.1/DTD/svg11.dtd">
<svg version="1.1" xmlns="http://www.w3.org/2000/svg" xmlns:xlink="http://www.w3.org/1999/xlink" x="0" y="0" width="40" height="32.497" viewBox="0, 0, 40, 32.497">
  <g id="Layer_1" transform="translate(0, -1.2)">
    <path d="M40,5.062 Q38.269,7.549 35.871,9.324 Q35.916,9.679 35.916,10.39 Q35.916,13.675 34.939,16.96 Q33.962,20.246 32.009,23.264 Q30.055,26.283 27.347,28.592 Q24.595,30.945 20.777,32.321 Q16.959,33.697 12.608,33.697 Q5.727,33.697 -0,30.012 Q0.888,30.101 1.998,30.101 Q7.68,30.101 12.164,26.594 Q9.501,26.55 7.37,24.996 Q5.283,23.398 4.484,20.911 Q5.327,21.045 6.038,21.045 Q7.148,21.045 8.213,20.778 Q5.372,20.201 3.507,17.937 Q1.643,15.717 1.643,12.743 L1.643,12.654 Q3.374,13.586 5.327,13.675 Q3.64,12.565 2.664,10.745 Q1.687,8.969 1.687,6.838 Q1.687,4.618 2.797,2.709 Q5.86,6.483 10.255,8.747 Q14.65,11.056 19.711,11.278 Q19.489,10.345 19.489,9.413 Q19.489,5.995 21.887,3.597 Q24.284,1.2 27.703,1.2 Q31.254,1.2 33.651,3.819 Q36.448,3.287 38.89,1.822 Q37.913,4.752 35.25,6.35 Q37.647,6.083 40,5.062 z"/>
  </g>
</svg>
