<?xml version="1.0" encoding="UTF-8"?>
<!DOCTYPE svg PUBLIC "-//W3C//DTD SVG 1.1//EN" "http://www.w3.org/Graphics/SVG/1.1/DTD/svg11.dtd">
<svg version="1.1" xmlns="http://www.w3.org/2000/svg" xmlns:xlink="http://www.w3.org/1999/xlink" x="0" y="0" width="40" height="40" viewBox="0, 0, 40, 40">
  <g id="Layer_1">
    <path d="M20,0 C31.046,0 40,8.954 40,20 C40,31.046 31.046,40 20,40 C8.954,40 0,31.046 0,20 C0,8.954 8.954,-0 20,0 z M34.815,26.108 L5.185,26.108 L5.185,28.118 Q5.185,28.739 5.914,29.171 Q6.644,29.604 7.643,29.604 L32.357,29.604 Q33.356,29.604 34.086,29.171 Q34.815,28.739 34.815,28.118 L34.815,26.108 z M21.229,27.107 Q21.472,27.107 21.472,27.597 Q21.474,28.094 21.229,28.118 L18.771,28.118 Q18.528,28.118 18.528,27.597 Q18.528,27.122 18.771,27.107 L21.229,27.107 z M28.386,9.308 L11.614,9.308 Q10.587,9.308 9.858,10.037 Q9.129,10.766 9.129,11.793 L9.129,22.651 Q9.129,23.677 9.858,24.406 Q10.587,25.135 11.613,25.135 L28.386,25.135 Q29.413,25.135 30.142,24.406 Q30.871,23.677 30.871,22.651 L30.871,11.793 Q30.871,10.766 30.142,10.037 Q29.413,9.308 28.386,9.308 z M28.386,11.306 Q28.603,11.306 28.738,11.442 Q28.9,11.577 28.9,11.793 L28.9,22.651 Q28.9,22.867 28.738,23.002 Q28.603,23.137 28.386,23.137 L11.614,23.137 Q11.397,23.137 11.262,23.002 Q11.1,22.867 11.1,22.651 L11.1,11.793 Q11.1,11.577 11.262,11.442 Q11.397,11.306 11.613,11.306 L28.386,11.306 z M27.438,12.284 L12.593,12.284 C12.32,12.284 12.099,12.505 12.099,12.778 L12.099,21.636 C12.099,21.909 12.32,22.13 12.593,22.13 L27.438,22.13 C27.711,22.13 27.932,21.909 27.932,21.636 L27.932,12.778 C27.932,12.505 27.711,12.284 27.438,12.284 z"/>
  </g>
</svg>
