<?xml version="1.0" encoding="UTF-8"?>
<!DOCTYPE svg PUBLIC "-//W3C//DTD SVG 1.1//EN" "http://www.w3.org/Graphics/SVG/1.1/DTD/svg11.dtd">
<svg version="1.1" xmlns="http://www.w3.org/2000/svg" xmlns:xlink="http://www.w3.org/1999/xlink" x="0" y="0" width="40" height="40" viewBox="0, 0, 40, 40">
  <g id="Layer_1">
    <path d="M34.799,26.071 L5.201,26.071 L5.201,28.079 Q5.201,28.699 5.93,29.131 Q6.658,29.563 7.656,29.563 L32.344,29.563 Q33.342,29.563 34.07,29.131 Q34.799,28.699 34.799,28.079 L34.799,26.071 z M21.228,27.069 Q21.47,27.069 21.47,27.558 Q21.472,28.055 21.228,28.079 L18.772,28.079 Q18.53,28.079 18.53,27.558 Q18.53,27.084 18.772,27.069 L21.228,27.069 z M28.377,9.289 L11.623,9.289 Q10.597,9.289 9.869,10.017 Q9.14,10.745 9.14,11.771 L9.14,22.617 Q9.14,23.642 9.869,24.371 Q10.597,25.099 11.622,25.099 L28.377,25.099 Q29.403,25.099 30.131,24.371 Q30.86,23.642 30.86,22.617 L30.86,11.771 Q30.86,10.745 30.131,10.017 Q29.403,9.289 28.377,9.289 z M28.377,11.285 Q28.593,11.285 28.728,11.42 Q28.89,11.555 28.89,11.771 L28.89,22.617 Q28.89,22.833 28.728,22.968 Q28.593,23.103 28.377,23.103 L11.623,23.103 Q11.407,23.103 11.272,22.968 Q11.11,22.833 11.11,22.617 L11.11,11.771 Q11.11,11.555 11.272,11.42 Q11.407,11.285 11.622,11.285 L28.377,11.285 z M27.43,12.262 L12.601,12.262 C12.328,12.262 12.107,12.482 12.107,12.755 L12.107,21.603 C12.107,21.876 12.328,22.097 12.601,22.097 L27.43,22.097 C27.703,22.097 27.924,21.876 27.924,21.603 L27.924,12.755 C27.924,12.482 27.703,12.262 27.43,12.262 z"/>
  </g>
</svg>
